HIERARCHY
ROOT Hips
{
	OFFSET -3.958830 18.904000 13.208200
	CHANNELS 6 Xposition Yposition Zposition Zrotation Yrotation Xrotation 
	JOINT LHipJoint
	{
		OFFSET 0.000000 0.000000 0.000000
		CHANNELS 3 Zrotation Yrotation Xrotation
		JOINT LeftUpLeg
		{
			OFFSET 1.800000 -1.400000 0.085000
			CHANNELS 3 Zrotation Yrotation Xrotation
			JOINT LeftLeg
			{
				OFFSET 2.215000 -6.000000 0.000000
				CHANNELS 3 Zrotation Yrotation Xrotation
				JOINT LeftFoot
				{
					OFFSET 2.500000 -6.900000 0.000000
					CHANNELS 3 Zrotation Yrotation Xrotation
					JOINT LeftToeBase
					{
						OFFSET 0.200000 -0.500000 1.950000
						CHANNELS 3 Zrotation Yrotation Xrotation
						End Site
						{
							OFFSET 0.000000 0.000000 0.000000
						}
					}
				}
			}
		}
	}
	JOINT RHipJoint
	{
		OFFSET 0.000000 0.000000 0.000000
		CHANNELS 3 Zrotation Yrotation Xrotation
		JOINT RightUpLeg
		{
			OFFSET -1.800000 -1.400000 0.085000
			CHANNELS 3 Zrotation Yrotation Xrotation
			JOINT RightLeg
			{
				OFFSET -2.215000 -6.000000 0.000000
				CHANNELS 3 Zrotation Yrotation Xrotation
				JOINT RightFoot
				{
					OFFSET -2.500000 -6.900000 0.000000
					CHANNELS 3 Zrotation Yrotation Xrotation
					JOINT RightToeBase
					{
						OFFSET -0.200000 -0.500000 1.950000
						CHANNELS 3 Zrotation Yrotation Xrotation
						End Site
						{
							OFFSET 0.000000 0.000000 0.000000
						}
					}
				}
			}
		}
	}
	JOINT LowerBack
	{
		OFFSET 0.000000 0.000000 0.000000
		CHANNELS 3 Zrotation Yrotation Xrotation
		JOINT Spine
		{
			OFFSET -0.087000 1.940000 -0.288900
			CHANNELS 3 Zrotation Yrotation Xrotation
			JOINT Spine1
			{
				OFFSET 0.000000 1.950000 0.060000
				CHANNELS 3 Zrotation Yrotation Xrotation
				JOINT Neck
				{
					OFFSET 0.000000 0.000000 0.000000
					CHANNELS 3 Zrotation Yrotation Xrotation
					JOINT Neck1
					{
						OFFSET 0.000000 1.600000 0.340000
						CHANNELS 3 Zrotation Yrotation Xrotation
						JOINT Head
						{
							OFFSET 0.000000 1.667000 -0.240000
							CHANNELS 3 Zrotation Yrotation Xrotation
							End Site
							{
								OFFSET 0.000000 0.000000 0.000000
							}
						}
					}
				}
				JOINT LeftShoulder
				{
					OFFSET 0.000000 0.000000 0.000000
					CHANNELS 3 Zrotation Yrotation Xrotation
					JOINT LeftArm
					{
						OFFSET 2.700000 1.550000 -0.730000
						CHANNELS 3 Zrotation Yrotation Xrotation
						JOINT LeftForeArm
						{
							OFFSET 5.450000 0.000000 0.000000
							CHANNELS 3 Zrotation Yrotation Xrotation
							JOINT LeftHand
							{
								OFFSET 3.450000 0.000000 0.000000
								CHANNELS 3 Zrotation Yrotation Xrotation
								JOINT LeftHandIndex1
								{
									OFFSET 0.750000 0.000000 0.000000
									CHANNELS 3 Zrotation Yrotation Xrotation
									End Site
									{
										OFFSET 0.000000 0.000000 0.000000
									}
								}
							}
						}
					}
				}
				JOINT RightShoulder
				{
					OFFSET 0.000000 0.000000 0.000000
					CHANNELS 3 Zrotation Yrotation Xrotation
					JOINT RightArm
					{
						OFFSET -2.700000 1.550000 -0.730000
						CHANNELS 3 Zrotation Yrotation Xrotation
						JOINT RightForeArm
						{
							OFFSET -5.450000 0.000000 0.000000
							CHANNELS 3 Zrotation Yrotation Xrotation
							JOINT RightHand
							{
								OFFSET -3.450000 0.000000 0.000000
								CHANNELS 3 Zrotation Yrotation Xrotation
								JOINT RightHandIndex1
								{
									OFFSET -0.750000 0.000000 0.000000
									CHANNELS 3 Zrotation Yrotation Xrotation
									End Site
									{
										OFFSET 0.000000 0.000000 0.000000
									}
								}
							}
						}
					}
				}
			}
		}
	}
}
MOTION
Frames: 10
Frame Time: 0.016667
0.807460 17.506390 -2.681930 2.985821 -30.710207 2.444768 -14.898408 11.473413 4.844624 5.130428 -5.151853 -46.173732 -4.875496 8.326488 33.752955 0.135152 5.600913 2.599273 0.728830 0.299090 0.657490 18.731846 -10.605558 3.117133 7.518888 -0.318518 2.081734 9.557979 -8.892607 27.485677 -1.048604 -5.722506 2.807249 -0.090740 -0.017630 0.169710 -4.804795 -0.062512 -8.206957 16.149488 0.335113 20.249648 -15.840043 5.536556 4.515055 4.181391 -11.012757 -13.983984 -29.419683 16.519000 44.562324 -4.047650 7.391060 -3.084110 -8.793391 4.688863 5.237167 -38.614804 18.866847 -15.091495 -19.060173 -67.942746 6.124142 -3.057002 3.573373 0.557200 -0.103810 0.145370 0.319470 0.010708 5.877037 7.416496 40.376220 -3.304591 -17.457719 -17.090865 65.503640 -10.959921 1.791417 -1.615325 0.109120 0.042010 -0.415410 -0.162120 
0.771670 17.609580 -2.652550 2.577802 -28.329633 2.565398 -14.930835 11.617920 4.800113 5.249942 -5.402736 -44.731749 -5.421931 9.252722 36.470240 0.324091 6.159809 2.441932 0.676040 0.241170 0.617040 18.686217 -10.487186 3.105836 7.229372 1.609934 -1.216889 11.206274 -10.328848 33.305915 -1.122922 -6.286366 2.656938 -0.145910 0.004100 0.107860 -4.614271 -0.368057 -8.296593 15.078242 0.158672 21.302580 -14.621264 5.066604 2.512006 3.970104 -11.200827 -14.183352 -29.882332 16.749924 43.966102 -2.656390 6.872520 -0.177440 -7.466110 7.517319 5.436859 -46.132056 17.833980 -16.373188 -30.640510 -71.845304 13.964345 -2.968136 3.680415 0.526920 -0.115070 0.105610 0.327160 -0.705788 3.612690 7.600614 48.850691 -3.737057 -19.404367 -10.703803 71.920883 -9.657135 1.851351 -1.718181 0.099170 0.048480 -0.425860 -0.142230 
0.744930 17.686390 -2.606550 1.216293 -25.492617 2.565049 -14.904990 11.738382 4.610404 5.405543 -5.366143 -42.720468 -4.672776 9.604760 39.259392 0.424324 6.634944 2.258937 0.601950 0.144190 0.522920 18.705444 -10.372691 3.228911 7.691408 3.536211 -4.057764 12.489971 -12.112317 39.489879 -1.294077 -7.137775 2.366493 -0.217530 0.007660 0.133000 -4.637484 -0.498070 -8.346899 16.549118 -0.676125 22.646911 -15.029761 4.470483 0.401676 4.157046 -11.344085 -14.398069 -30.448095 16.848505 44.088161 -1.854340 5.853770 1.619990 -8.058776 9.708450 5.489676 -51.303175 18.687972 -16.650362 -53.533832 -76.545277 31.943606 -2.884452 3.906942 0.546850 -0.122260 0.087550 0.301310 -0.435817 1.553112 8.068782 56.074419 -5.614790 -20.699617 2.928733 78.254225 -2.338080 1.912704 -1.923006 0.108840 -0.012310 -0.363040 -0.134470 
0.718960 17.746070 -2.577340 0.484389 -22.564429 1.572790 -14.913123 11.954196 4.344466 4.970327 -5.299947 -39.874121 -3.742862 9.763177 41.356990 0.501531 6.978178 2.167849 0.528420 0.015890 0.499530 18.671611 -10.217386 3.436065 7.323265 5.929701 -6.947825 13.817192 -14.773716 47.438685 -1.581273 -8.426745 1.964309 -0.293480 0.024500 0.120330 -4.514696 -0.792463 -8.463327 16.498936 -1.140506 25.492091 -14.575734 3.989134 -2.976497 4.244109 -11.310529 -13.908361 -30.040693 16.173953 44.538252 -1.164990 4.569420 2.827420 -9.472437 12.438504 4.708514 -55.141661 19.316151 -14.571869 -82.884247 -78.645209 55.326515 -3.259311 3.313906 0.580400 -0.132820 0.058530 0.268250 0.738464 -0.919844 8.196907 60.490299 -8.095854 -19.388801 29.943299 82.838367 18.080142 2.064456 -2.101970 0.075160 -0.014300 -0.319040 -0.153220 
0.669320 17.756730 -2.526370 -0.342653 -19.730808 0.887649 -14.928042 12.164816 3.949831 5.139412 -4.641120 -36.453894 -3.366606 10.098641 42.065798 0.511432 7.191273 2.123773 0.434500 -0.128870 0.461700 18.648536 -9.966033 3.760296 6.930984 8.738740 -10.056773 15.479856 -18.360404 56.117477 -1.958744 -10.062339 1.489713 -0.349930 0.053190 0.064730 -4.425578 -1.144851 -8.564661 16.754755 -1.277574 27.189687 -14.182499 3.509997 -6.136453 4.364444 -11.348424 -13.262689 -29.991415 15.960102 44.726163 -0.487420 3.619110 4.502740 -10.364478 15.429795 3.775412 -57.985619 20.576470 -15.868474 -104.362834 -73.582895 71.531858 -3.302470 2.923791 0.622620 -0.138510 0.004770 0.232510 1.294779 -3.681158 7.987590 64.808520 -11.059121 -12.806049 76.852551 87.601426 54.766239 3.441054 0.142966 -0.008080 0.016930 -0.266040 -0.188280 
0.631180 17.737510 -2.482270 -0.356776 -16.404208 -0.187686 -14.987094 12.457117 3.530149 4.456002 -4.114756 -32.810946 -1.893201 9.715670 42.223500 0.523299 7.125512 2.205008 0.347860 -0.254340 0.414080 18.573283 -9.654326 4.141116 5.530608 11.438911 -13.452366 16.817925 -23.141241 65.798881 -2.454164 -12.037406 0.966979 -0.407650 0.092700 0.024210 -4.190586 -1.738938 -8.715203 15.496927 -1.237580 29.842943 -12.783797 2.865672 -10.394422 4.448283 -11.192495 -12.753791 -29.159245 15.121500 45.081161 0.083520 2.574930 6.375340 -11.803769 18.951131 2.486589 -59.588378 21.927448 -15.177502 -120.611219 -69.461435 86.484149 -3.092519 3.115637 0.654490 -0.138570 -0.028460 0.237670 2.708078 -7.032093 8.308903 65.906710 -13.936322 -20.538297 114.971352 71.944349 81.166572 2.741808 -0.017005 -0.078730 0.045830 -0.244850 -0.199160 
0.587980 17.696150 -2.425220 -0.340713 -12.770074 -1.062651 -15.007451 12.652491 3.125642 4.497361 -3.406100 -28.939986 -1.774182 9.673557 41.019756 0.577145 6.905868 2.310219 0.341460 -0.278280 0.411070 18.530464 -9.398451 4.527714 2.863074 13.630008 -16.913065 18.386790 -29.068147 74.600762 -3.000865 -14.038488 0.476141 -0.449830 0.074670 0.045120 -4.077679 -2.101179 -8.832084 15.133056 -1.200083 31.595077 -12.726320 1.922650 -13.993187 4.861475 -10.807387 -12.193152 -27.743975 13.951899 46.012516 0.414640 1.758090 7.318970 -13.599598 21.366002 1.133621 -59.014094 21.969932 -12.954057 -137.347287 -65.977284 104.617003 -2.931619 3.359120 0.653000 -0.150710 -0.009970 0.259870 3.772266 -9.609272 8.536119 67.259148 -17.039683 -18.123953 130.602997 65.218774 94.171352 2.253588 -1.283131 -0.051270 -0.002420 -0.275430 -0.186970 
0.550590 17.629830 -2.384860 -0.730229 -9.244194 -1.074923 -14.980664 12.701773 2.775095 4.709126 -2.821732 -26.151664 -1.339186 9.290784 39.299346 0.523840 6.624753 2.466170 0.266100 -0.366480 0.339350 18.551446 -9.197805 4.873631 0.079645 14.966046 -20.153209 20.319449 -35.159822 80.742969 -3.409326 -15.677644 0.139513 -0.483390 0.169620 0.020310 -4.151112 -2.218571 -8.869299 16.034243 -1.744519 30.668977 -13.017375 0.680014 -14.298697 4.870685 -10.608384 -12.354714 -26.801076 13.671155 45.973729 1.267210 1.171320 9.700570 -13.287073 21.584616 1.142820 -60.701105 20.109324 -11.155957 -152.142682 -63.494440 123.100543 -2.908984 3.424778 0.636930 -0.095970 -0.073010 0.279770 3.437645 -10.147645 8.648715 69.267540 -16.640451 -14.865261 140.504833 60.355970 102.452125 2.113378 -1.657666 -0.108940 0.044530 -0.240800 -0.176990 
0.524570 17.575160 -2.334860 -2.573577 -6.504164 -0.535591 -14.921505 12.635188 2.470351 7.209217 -1.982761 -24.296629 -2.743901 9.657569 36.561332 0.487976 6.437209 2.548963 0.184430 -0.457940 0.248860 18.624726 -8.962159 5.194700 -1.806263 16.237226 -23.461467 21.281899 -40.855786 86.478032 -3.752344 -17.144287 -0.159073 -0.526500 0.254410 0.035870 -4.353996 -2.197501 -8.875872 19.373905 -3.018023 29.152436 -14.765378 -0.773910 -14.472156 5.058523 -10.847337 -12.384230 -26.250898 13.462388 44.533441 1.875510 0.527810 11.464100 -11.979732 22.339702 0.956757 -62.321893 17.338746 -8.551366 -163.620596 -61.241654 139.992317 -2.931580 3.543503 0.577350 -0.031500 -0.148170 0.274270 1.455593 -10.687069 8.709064 71.378979 -14.525199 -10.695795 147.168029 56.872655 109.888005 2.029798 -1.879275 -0.121600 0.031760 -0.182910 -0.153750 
0.486320 17.575540 -2.280980 -3.603542 -2.158741 -1.545882 -14.928578 12.795143 2.225962 8.825768 -1.501327 -21.602838 -3.109409 9.206640 33.381214 0.435421 5.983953 2.696060 0.165320 -0.467430 0.187960 18.584310 -8.807856 5.396040 -4.589661 15.783348 -25.680811 22.692330 -45.457156 88.750107 -3.977540 -17.949882 -0.323240 -0.552550 0.271140 0.073230 -4.296082 -2.545974 -8.891437 20.235282 -4.108121 29.391762 -14.560616 -1.990456 -15.682284 5.240787 -10.667891 -12.858391 -26.130407 13.652972 46.673482 3.985450 -1.266530 11.896390 -11.667664 21.933356 0.796032 -64.879366 13.699109 -5.551415 -176.137884 -58.238909 160.511016 -2.912211 3.638311 0.567360 -0.025180 -0.145170 0.277210 0.817757 -10.119825 9.069928 71.842657 -13.180087 -7.849388 156.749797 53.908370 123.558303 1.968565 -2.019839 -0.085220 -0.002970 -0.156260 -0.123780 
